
<svg width="1640" height="624" viewBox="0 0 1640 624" xmlns="http://www.w3.org/2000/svg">
  <defs>
    <linearGradient id="bg" x1="0" x2="1" y1="0" y2="1">
      <stop offset="0%" stop-color="#07090d"/>
      <stop offset="45%" stop-color="#121722"/>
      <stop offset="100%" stop-color="#090b10"/>
    </linearGradient>
    <radialGradient id="glow" cx="22%" cy="18%" r="80%">
      <stop offset="0%" stop-color="rgba(244,196,79,0.46)"/>
      <stop offset="45%" stop-color="rgba(244,196,79,0.10)"/>
      <stop offset="100%" stop-color="rgba(244,196,79,0)"/>
    </radialGradient>
    <filter id="shadow" x="-20%" y="-20%" width="140%" height="140%">
      <feDropShadow dx="0" dy="22" stdDeviation="24" flood-color="#000000" flood-opacity="0.45"/>
    </filter>
  </defs>
  <rect width="1640" height="624" fill="url(#bg)"/>
  <rect width="1640" height="624" fill="url(#glow)"/>
  <g opacity="0.22">
    <path d="M0 462 C160 420 230 486 390 442 C540 402 628 328 792 360 C930 388 1010 488 1156 450 C1312 410 1402 294 1640 332" fill="none" stroke="#6aa7ff" stroke-width="3"/>
    <path d="M0 420 C164 380 240 438 390 408 C536 378 628 300 780 324 C932 348 1016 444 1162 406 C1320 365 1410 250 1640 292" fill="none" stroke="#f4c44f" stroke-width="3"/>
  </g>
  <g transform="translate(1030 86)" filter="url(#shadow)">
    <rect x="0" y="0" width="446" height="360" rx="22" fill="rgba(20,24,32,0.92)" stroke="rgba(255,255,255,0.12)"/>
    <text x="32" y="54" fill="#9ca7ba" font-family="Segoe UI, Arial, sans-serif" font-size="24">AI Signal</text>
    <text x="32" y="130" fill="#ff6b6b" font-family="Segoe UI, Arial, sans-serif" font-size="86" font-weight="900">SELL</text>
    <circle cx="354" cy="92" r="52" fill="none" stroke="#ff6b6b" stroke-width="10"/>
    <text x="354" y="88" text-anchor="middle" fill="#ffffff" font-family="Segoe UI, Arial, sans-serif" font-size="30" font-weight="900">77%</text>
    <text x="354" y="116" text-anchor="middle" fill="#9ca7ba" font-family="Segoe UI, Arial, sans-serif" font-size="14">confidence</text>
    <rect x="32" y="178" width="112" height="72" rx="10" fill="#202632" stroke="rgba(255,255,255,0.12)"/>
    <rect x="166" y="178" width="112" height="72" rx="10" fill="#202632" stroke="rgba(255,255,255,0.12)"/>
    <rect x="300" y="178" width="112" height="72" rx="10" fill="#202632" stroke="rgba(255,255,255,0.12)"/>
    <text x="46" y="206" fill="#9ca7ba" font-family="Segoe UI, Arial, sans-serif" font-size="15">Entry</text>
    <text x="46" y="236" fill="#ffffff" font-family="Segoe UI, Arial, sans-serif" font-size="24" font-weight="800">4,543</text>
    <text x="180" y="206" fill="#9ca7ba" font-family="Segoe UI, Arial, sans-serif" font-size="15">TP</text>
    <text x="180" y="236" fill="#42d392" font-family="Segoe UI, Arial, sans-serif" font-size="24" font-weight="800">4,473</text>
    <text x="314" y="206" fill="#9ca7ba" font-family="Segoe UI, Arial, sans-serif" font-size="15">SL</text>
    <text x="314" y="236" fill="#ff6b6b" font-family="Segoe UI, Arial, sans-serif" font-size="24" font-weight="800">4,575</text>
    <path d="M42 304 H404" stroke="#ffffff" stroke-width="2" stroke-dasharray="10 8"/>
    <path d="M42 328 H404" stroke="#42d392" stroke-width="2" stroke-dasharray="10 8"/>
    <path d="M42 280 H404" stroke="#ff6b6b" stroke-width="2" stroke-dasharray="10 8"/>
  </g>
  <g transform="translate(104 102)">
    <rect x="0" y="0" width="86" height="86" rx="18" fill="rgba(244,196,79,0.12)" stroke="rgba(244,196,79,0.55)"/>
    <text x="43" y="57" text-anchor="middle" fill="#f4c44f" font-family="Segoe UI, Arial, sans-serif" font-size="34" font-weight="900">GO</text>
    <text x="0" y="176" fill="#ffffff" font-family="Segoe UI, Arial, sans-serif" font-size="86" font-weight="900">Gold Oracle</text>
    <text x="0" y="228" fill="#f4c44f" font-family="Segoe UI, Arial, sans-serif" font-size="34" font-weight="800">AI Gold Signal Assistant</text>
    <text x="0" y="286" fill="#dbe2ee" font-family="Segoe UI, Arial, sans-serif" font-size="30">Realtime chart • GPT-assisted insight • Entry / TP / SL</text>
    <g transform="translate(0 344)">
      <rect x="0" y="0" width="168" height="48" rx="24" fill="rgba(66,211,146,0.14)" stroke="rgba(66,211,146,0.45)"/>
      <text x="84" y="32" text-anchor="middle" fill="#bbffd9" font-family="Segoe UI, Arial, sans-serif" font-size="20" font-weight="800">AI Hybrid v2</text>
      <rect x="188" y="0" width="154" height="48" rx="24" fill="rgba(106,167,255,0.14)" stroke="rgba(106,167,255,0.45)"/>
      <text x="265" y="32" text-anchor="middle" fill="#d8e9ff" font-family="Segoe UI, Arial, sans-serif" font-size="20" font-weight="800">Trade Plan</text>
      <rect x="362" y="0" width="132" height="48" rx="24" fill="rgba(244,196,79,0.14)" stroke="rgba(244,196,79,0.45)"/>
      <text x="428" y="32" text-anchor="middle" fill="#ffe5a4" font-family="Segoe UI, Arial, sans-serif" font-size="20" font-weight="800">XAU/USD</text>
    </g>
  </g>
  <text x="104" y="574" fill="#9ca7ba" font-family="Segoe UI, Arial, sans-serif" font-size="22">Educational tool only. Not investment advice.</text>
</svg>